<?xml version="1.0" encoding="UTF-8" standalone="no"?>
<svg
   xmlns:osb="http://www.openswatchbook.org/uri/2009/osb"
   xmlns:dc="http://purl.org/dc/elements/1.1/"
   xmlns:cc="http://creativecommons.org/ns#"
   xmlns:rdf="http://www.w3.org/1999/02/22-rdf-syntax-ns#"
   xmlns:svg="http://www.w3.org/2000/svg"
   xmlns="http://www.w3.org/2000/svg"
   xmlns:xlink="http://www.w3.org/1999/xlink"
   xmlns:sodipodi="http://sodipodi.sourceforge.net/DTD/sodipodi-0.dtd"
   xmlns:inkscape="http://www.inkscape.org/namespaces/inkscape"
   id="svg8"
   version="1.1"
   viewBox="0 0 20 67.73"
   height="256"
   width="256"
   sodipodi:docname="hhch-logo.svg"
   inkscape:version="0.92.4 (5da689c313, 2019-01-14)">
  <sodipodi:namedview
     pagecolor="#ffffff"
     bordercolor="#666666"
     borderopacity="1"
     objecttolerance="10"
     gridtolerance="10"
     guidetolerance="10"
     inkscape:pageopacity="0"
     inkscape:pageshadow="2"
     inkscape:window-width="1920"
     inkscape:window-height="1017"
     id="namedview70"
     showgrid="false"
     inkscape:zoom="5.2149125"
     inkscape:cx="138.16797"
     inkscape:cy="57.011471"
     inkscape:window-x="1592"
     inkscape:window-y="-8"
     inkscape:window-maximized="1"
     inkscape:current-layer="svg8" />
  <defs
     id="defs2">
    <linearGradient
       id="linearGradient4649"
       osb:paint="solid">
      <stop
         style="stop-color:#704299;stop-opacity:1;"
         offset="0"
         id="stop4647" />
    </linearGradient>
    <linearGradient
       gradientTransform="matrix(0.61480695,0,0,0.61480695,-52.818603,-25.67984)"
       inkscape:collect="always"
       xlink:href="#linearGradient4649"
       id="linearGradient4651-7"
       x1="-23.296991"
       y1="263.14771"
       x2="43.405067"
       y2="263.14771"
       gradientUnits="userSpaceOnUse" />
  </defs>
  <metadata
     id="metadata5">
    <rdf:RDF>
      <cc:Work
         rdf:about="">
        <dc:format>image/svg+xml</dc:format>
        <dc:type
           rdf:resource="http://purl.org/dc/dcmitype/StillImage" />
        <dc:title />
      </cc:Work>
    </rdf:RDF>
  </metadata>
  <path
     inkscape:connector-curvature="0"
     id="path1118-1"
     d="m -15.500316,66.475297 c -0.609284,-0.186009 -1.100688,-0.598411 -1.404925,-1.179071 -0.154959,-0.295747 -0.173049,-0.426178 -0.173049,-1.247695 0,-0.855253 0.01345,-0.94291 0.19836,-1.293455 0.394965,-0.748718 1.07704,-1.16715 2.04016,-1.251577 1.293703,-0.113405 2.550365,0.714443 1.845934,1.216048 -0.291133,0.207298 -0.466283,0.194874 -0.730378,-0.05183 -0.121584,-0.113572 -0.359635,-0.248019 -0.529002,-0.298758 -1.202782,-0.360363 -2.377202,1.101425 -1.867231,2.324123 0.212269,0.50893 0.763794,0.953633 1.335844,1.077111 0.324813,0.07011 0.894751,-0.128057 1.157716,-0.402533 0.234421,-0.244685 0.499279,-0.281281 0.752428,-0.103968 0.374351,0.262207 0.06245,0.808175 -0.644217,1.127683 -0.264609,0.119641 -0.476191,0.148398 -1.064214,0.144635 -0.403668,-0.0024 -0.81651,-0.02988 -0.917426,-0.06068 z m 31.999832,-0.04838 c -0.641723,-0.27796 -0.841805,-0.748898 -0.443338,-1.043494 0.291795,-0.215728 0.384913,-0.204214 0.778623,0.09631 0.185101,0.141296 0.413785,0.276277 0.508168,0.299972 0.241854,0.06068 0.683075,-0.168674 0.814927,-0.423646 0.20987,-0.405853 -0.0367,-0.684144 -0.836664,-0.94422 -0.650425,-0.211476 -1.091334,-0.470585 -1.216299,-0.714786 -0.154194,-0.30133 -0.204761,-0.745991 -0.129761,-1.141047 0.162888,-0.858023 1.223275,-1.296712 2.33578,-0.966335 0.735691,0.218479 0.985107,0.654383 0.563977,0.985646 -0.25434,0.200065 -0.435327,0.191956 -0.70076,-0.03141 -0.393082,-0.330756 -0.758486,-0.332483 -1.111568,-0.0055 -0.409211,0.379246 -0.162856,0.775421 0.659132,1.059983 1.214441,0.420426 1.419973,0.646562 1.419973,1.562404 0,0.497797 -0.01857,0.564619 -0.227282,0.817829 -0.366954,0.445168 -0.682959,0.565511 -1.476207,0.562172 -0.441568,-0.0019 -0.772339,-0.04211 -0.938701,-0.114144 z m 10.78029,0.01566 c -0.652255,-0.233084 -1.064236,-0.612489 -1.354716,-1.247584 -0.166364,-0.36375 -0.198102,-0.536578 -0.202161,-1.100909 -0.0067,-0.929528 0.145802,-1.35319 0.678919,-1.886302 0.531945,-0.53195 0.962647,-0.690473 1.877418,-0.690994 1.160641,-5.29e-4 1.911732,0.422889 2.356604,1.328929 0.193081,0.393231 0.212188,0.501554 0.212188,1.202789 0,0.932971 -0.146379,1.32186 -0.694687,1.84559 -0.508322,0.485526 -0.992366,0.650668 -1.895205,0.646586 -0.392061,-0.0019 -0.832325,-0.04593 -0.97836,-0.09811 z m 1.678596,-0.844702 c 0.561243,-0.288675 0.968253,-0.938841 0.969907,-1.549369 0.0024,-0.951799 -1.006243,-1.891503 -1.858906,-1.731541 -0.7351,0.137907 -1.326071,0.793415 -1.415734,1.570352 -0.0546,0.472769 0.186631,1.102221 0.541853,1.414112 0.591574,0.519413 1.147593,0.612907 1.76288,0.296446 z m -41.229378,-1.545696 v -2.425666 h 0.440365 0.440365 v 0.954126 0.954117 h 1.027517 1.0275161 v -0.954117 -0.954126 h 0.4220162 0.422016 v 2.422007 2.422001 h -0.422016 -0.4220162 V 65.40631 64.342097 h -1.0255011 -1.025502 l -0.02036,1.04586 -0.02036,1.045868 -0.422016,0.02201 -0.422016,0.02201 z m 4.6238283,-0.0037 v -2.422001 h 0.449967 0.449968 l -0.04549,0.275225 c -0.02502,0.151376 -0.04586,1.241276 -0.0463,2.422006 l -7.94e-4,2.146782 h -0.403667 -0.403668 V 64.04849 Z m 1.61467,-0.0037 v -2.425504 l 0.458713,0.02183 0.458714,0.02183 0.01953,1.99999 0.01953,1.999985 h 1.026341 1.026338 v 0.403671 0.403665 h -1.504579 -1.50458 z m 3.302735,0.01077 v -2.429274 h 1.129878 c 1.51976611,0 1.94884211,0.12403 2.54827414,0.736637 0.51859296,0.529988 0.67989496,0.991702 0.63960196,1.830827 -0.04549,0.947355 -0.515009,1.643513 -1.38198999,2.049084 -0.375163,0.175489 -0.49306704,0.190707 -1.66971611,0.21541 l -1.266048,0.02656 z m 2.21120807,1.495266 C 0.3742544,65.246607 0.87228844,64.290651 0.5454764,63.508481 0.2702154,62.849685 -0.36129264,62.464433 -1.2953637,62.385475 l -0.55365,-0.04679 v 1.662137 1.662136 h 0.500685 c 0.275376,0 0.64878407,-0.05047 0.82979406,-0.11214 z M 2.1142683,64.048354 v -2.422007 l 1.082563,5.29e-4 c 1.284403,5.3e-4 1.578888,0.06741 1.933783,0.439433 0.311201,0.326223 0.40661,0.777072 0.275031,1.299628 -0.09236,0.366787 -0.467308,0.799298 -0.755663,0.871672 l -0.177072,0.04445 0.149221,0.268533 c 0.08207,0.147697 0.195411,0.320665 0.251865,0.384397 0.05645,0.06373 0.102643,0.143183 0.102643,0.176553 0,0.03338 0.08257,0.16895 0.183485,0.301256 0.100915,0.132306 0.18422,0.267539 0.185117,0.300507 7.94e-4,0.03295 0.06622,0.142511 0.145157,0.243426 0.07894,0.100915 0.144257,0.257794 0.145156,0.348619 0.0016,0.155387 -0.02815,0.165136 -0.502419,0.165136 h -0.504049 l -0.637027,-1.064207 c -0.54329,-0.907616 -0.663518,-1.064213 -0.817045,-1.064213 h -0.180016 v 1.064213 1.06421 h -0.440365 -0.440365 v -2.422001 z m 1.928954,-0.54033 c 0.368589,-0.156006 0.533704,-0.379275 0.451394,-0.610356 -0.114004,-0.320042 -0.388561,-0.465524 -0.970682,-0.514329 l -0.528936,-0.04433 v 0.634493 0.634492 h 0.406024 c 0.223314,0 0.512304,-0.045 0.6422,-0.09996 z m 1.960934,0.541732 v -2.423409 h 1.61467 1.614673 v 0.366973 0.366964 h -1.174309 -1.174306 v 0.585192 0.585193 l 1.082564,0.02029 1.082563,0.02029 0.0222,0.385317 0.0222,0.385323 h -1.104747 -1.104747 v 0.658722 0.658735 l 1.192654,0.02016 1.192653,0.02016 v 0.366969 0.366967 l -1.633018,0.01974 -1.633017,0.01974 z m 3.743101,-0.0049 v -2.425218 l 0.5316117,0.02159 0.53161,0.02159 0.381685,0.550458 c 0.209926,0.302747 0.437756,0.649536 0.506287,0.770635 0.06853,0.121099 0.23683,0.368803 0.373994,0.550454 0.137164,0.181651 0.413225,0.560759 0.613467,0.842463 l 0.364075,0.512185 v -1.635111 -1.635108 l 0.422024,0.02201 0.422014,0.02201 v 2.385303 2.38531 l -0.489331,0.02159 -0.489323,0.02159 -1.149843,-1.672933 -1.14985,-1.672931 0.02453,1.669748 0.02453,1.669753 -0.458716,-3.7e-5 -0.4587117,-3.2e-5 z m 11.5962687,0.0031 v -2.422009 h 0.440367 0.440361 v 0.954125 0.95412 h 1.027522 1.027515 v -0.95412 -0.954125 h 0.440361 0.440367 v 2.422009 2.422001 h -0.440367 -0.440361 v -1.064213 -1.064213 h -1.027515 -1.027522 v 1.064213 1.064213 h -0.440361 -0.440367 z m 10.054995,0 v -2.422009 h 0.577046 0.577052 l 0.425524,1.045867 c 0.234034,0.575227 0.524339,1.286889 0.645118,1.58148 0.120779,0.294591 0.242418,0.509269 0.270301,0.477065 0.02791,-0.03221 0.328368,-0.743744 0.667727,-1.581191 l 0.617029,-1.522636 0.568799,-2.65e-4 0.568808,-2.65e-4 v 2.422007 2.422009 h -0.440367 -0.440361 l -0.0024,-1.449539 -0.0024,-1.449528 -0.33325,0.770636 c -0.183287,0.423854 -0.461366,1.067882 -0.617949,1.431185 l -0.284699,0.660547 h -0.339325 -0.339319 l -0.599638,-1.421452 -0.599636,-1.421446 -0.01992,1.439792 -0.01992,1.439805 h -0.438785 -0.438811 v -2.422009 z m 5.724738,0 v -2.422009 h 1.614667 1.614675 v 0.366972 0.366972 h -1.174306 -1.174306 v 0.585188 0.585189 l 1.082564,0.02029 1.082558,0.02029 0.0222,0.385325 0.0222,0.385318 h -1.104748 -1.104745 v 0.660542 0.660547 h 1.211002 1.211005 v 0.403671 0.403665 H 38.774648 37.123282 Z M 14.371085,63.266847 c 0,-0.106645 0.09036,-0.519489 0.200803,-0.917429 l 0.200796,-0.723528 h 0.423048 c 0.420154,0 0.423056,0.0013 0.423056,0.21791 0,0.219149 -0.29048,1.190083 -0.439144,1.467871 -0.06374,0.119101 -0.153039,0.149072 -0.444169,0.149072 -0.344968,0 -0.36439,-0.01032 -0.36439,-0.193896 z M -0.0986236,60.043193 c -1.8509001,-0.334959 -3.4892131,-1.388505 -4.5283411,-2.912028 -0.367376,-0.538633 -0.80127,-1.500134 -0.969076,-2.147464 -0.311854,-1.203017 -0.313086,-3.249169 -0.0027,-4.454912 0.366093,-1.422065 1.236549,-2.757648 2.361396,-3.623192 0.941632,-0.724574 2.27248406,-1.271991 3.47964209,-1.431283 1.02436001,-0.135164 2.69896391,-0.053 3.57347991,0.17532 1.599534,0.417632 3.081292,1.390595 3.876014,2.545111 0.09725,0.14128 0.197337,0.273391 0.222411,0.293575 0.02508,0.02016 0.06838,0.08624 0.09624,0.146786 0.02786,0.06056 0.150744,0.291745 0.273076,0.513761 0.273883,0.497062 0.631489,1.554597 0.729153,2.156272 0.196621,1.211383 -0.0055,3.610594 -0.36107,4.286537 -0.03645,0.06928 -0.176394,0.357154 -0.310997,0.63972 -0.134605,0.282572 -0.262991,0.530276 -0.285307,0.550455 -0.0223,0.02016 -0.116274,0.161263 -0.208799,0.313515 -0.894962,1.472623 -2.6939,2.60461 -4.695995,2.95497 -0.767528,0.134317 -2.48837592,0.130531 -3.24914492,-0.0071 z m 2.8734389,-2.131984 c 1.364475,-0.308278 2.565868,-1.28922 3.225862,-2.633933 0.376465,-0.767031 0.514732,-1.304509 0.567199,-2.204826 0.126428,-2.169458 -0.974661,-4.166707 -2.791447,-5.063365 -1.435354,-0.708405 -2.95638189,-0.721015 -4.34104594,-0.03597 -0.87709406,0.433919 -1.76100906,1.342149 -2.21574006,2.276686 -0.442997,0.910418 -0.663758,2.194505 -0.538763,3.133777 0.149115,1.12054 0.459199,1.942888 1.004653,2.664358 1.27328,1.68417 3.0320291,2.328084 5.089282,1.863294 z M 13.563751,60.052662 C 11.783757,59.677377 10.415632,58.47214 9.8633082,56.792775 9.7617659,56.484018 9.6448183,56.016719 9.6034293,55.754336 c -0.04568,-0.289538 -0.07547,-2.345095 -0.0758,-5.229333 l -5.29e-4,-4.752267 h 1.1743067 1.174306 l 6.6e-5,4.532087 c 7.4e-5,3.614948 0.02109,4.636055 0.103884,5.045842 0.157546,0.779803 0.368245,1.357796 0.494969,1.357796 0.03388,0 0.06161,0.03498 0.06161,0.07771 0,0.169748 0.618854,0.723573 1.049008,0.938785 0.862304,0.431416 1.941523,0.449756 2.822727,0.04796 0.542745,-0.247471 1.151995,-0.848162 1.409112,-1.389322 0.426996,-0.898663 0.44391,-1.130797 0.44391,-6.094023 V 45.77274 h 1.177602 1.177608 l -0.02336,5.045842 -0.02336,5.045851 -0.265123,0.789732 c -0.452892,1.349089 -1.285672,2.346889 -2.45067,2.936286 -0.804519,0.407028 -1.303983,0.510186 -2.601906,0.537398 -0.83449,0.01751 -1.359326,-0.0061 -1.688065,-0.07519 z m 10.605444,0.02114 C 23.000559,59.858129 21.935547,59.329874 21.170679,58.586503 20.900305,58.323729 20.83,58.205249 20.83091,58.013904 c 0.0013,-0.215066 0.07982,-0.307028 0.725547,-0.846768 0.783946,-0.655279 1.008363,-0.735383 1.237319,-0.441647 0.677054,0.868606 1.741039,1.406033 2.769914,1.399111 0.871772,-0.0061 1.706796,-0.419754 2.151811,-1.066554 0.552928,-0.803653 0.458185,-1.669835 -0.255697,-2.337688 -0.431662,-0.403824 -0.742276,-0.550996 -2.24849,-1.065337 -1.511062,-0.516002 -2.079216,-0.769728 -2.631578,-1.175192 -0.433414,-0.318162 -0.884517,-0.93056 -1.095628,-1.487401 -0.191464,-0.505009 -0.268917,-1.746342 -0.149382,-2.39406 0.129952,-0.704101 0.525109,-1.421549 1.05635,-1.917915 0.899272,-0.84023 1.856392,-1.192043 3.41368,-1.25477 1.14003,-0.04593 1.845409,0.0474 2.677681,0.354276 0.867431,0.319828 1.888564,1.06153 1.888564,1.371757 0,0.210535 -1.372342,1.483351 -1.599335,1.483351 -0.120343,0 -0.316773,-0.124965 -0.564086,-0.358864 -0.850998,-0.804836 -1.965752,-1.081759 -2.97968,-0.740191 -1.319235,0.44442 -1.948439,1.66306 -1.363241,2.640333 0.371441,0.620314 0.775,0.852903 2.469666,1.423383 0.787149,0.26498 1.709238,0.622841 2.049078,0.795245 1.063388,0.53947 1.782977,1.386021 1.990752,2.341985 0.138367,0.636664 0.05361,2.267999 -0.143535,2.762923 -0.538054,1.35069 -1.703076,2.233595 -3.370647,2.554445 -0.596479,0.11476 -2.114898,0.12575 -2.690778,0.0195 z m -41.79794,-7.291269 v -7.009137 h 1.137608 1.137609 v 2.862367 2.862376 h 3.302735 3.3027333 v -2.862376 -2.862367 h 1.137609 1.137608 v 7.009137 7.009137 h -1.137608 -1.137609 v -3.119247 -3.119247 h -3.3027333 -3.302735 v 3.119247 3.119247 h -1.137609 -1.137608 z m 48.73369,0 v -7.009137 h 4.587129 4.58713 v 1.027519 1.027515 h -3.412825 -3.412822 v 1.834081 1.834086 l 3.210987,0.01913 3.210989,0.01913 0.0204,1.00917 0.02043,1.009174 h -3.231418 -3.231406 v 2.091727 2.091733 h 3.559608 3.559616 v 1.027519 1.027515 h -4.733922 -4.733914 z m -1.357796,-8.192889 c -2.561678,-0.244331 -4.664779,-1.19267 -6.445268,-2.72454 L 22.82165,41.47233 26.356361,37.493106 c 0,0 1.559938,1.215711 2.267783,1.597126 0.806995,0.431189 1.884566,0.738839 2.581949,0.737154 0.927422,-0.0024 1.880529,-0.352651 2.319708,-0.852853 0.768952,-0.875786 0.702455,-1.943139 -0.168518,-2.705046 -0.548309,-0.479645 -1.195122,-0.769397 -3.285479,-1.471765 -3.211622,-1.079127 -4.402916,-1.791583 -5.365272,-3.208714 -0.676072,-0.995565 -0.941,-1.984979 -0.941,-3.514338 0,-1.994413 0.379889,-3.134039 1.491195,-4.473399 2.082513,-2.509865 6.848323,-3.467452 10.949105,-2.199984 1.691107,0.522685 3.924927,2.375945 3.924927,2.375945 l -3.393291,3.72268 c 0,0 -0.545862,-0.447854 -1.077633,-0.760979 -0.531771,-0.313125 -1.350192,-0.700783 -2.236367,-0.927194 -1.951693,-0.498642 -3.778665,0.414309 -3.784795,1.891285 -0.0043,0.983768 0.722126,1.554128 2.897455,2.275636 2.995113,0.993411 4.137411,1.489578 5.041509,2.189829 1.564555,1.211793 2.268307,2.501407 2.381432,4.363929 0.187313,3.084051 -1.005928,5.443238 -3.48078,6.881942 -1.683556,0.978699 -4.194889,1.41719 -6.73114,1.175288 z m -47.187273,-26.215949 6.307622,-4.343059 0.03587,11.779561 H 5.6372283 v 6.238499 H -11.096621 V 44.08533 h -6.385287 c 0,0 0.01379,-16.53767 0.04178,-25.711635 z m 23.9759763,-4.616421 6.4078177,4.742292 -0.0038,25.549116 -3.2109957,0.01913 -3.210989,0.01913 z m 9.4498997,7.649277 h 5.87153 V 44.08533 h -5.87153 z m 25.145604,0.366971 -0.418127,-0.0046 0.0063,-0.435799 h 0.870105 0.781336 l 0.240253,0.477061 0.249016,-0.470782 0.574873,-0.0063 v 0.770637 0.770639 H 43.08222 l -0.0052,-1.103452 -0.449159,1.103452 -0.417451,-0.989302 0.01378,0.989302 h -0.403667 v -0.550456 c 0,-0.318041 0.0091,-0.550456 0.0091,-0.550456 l -0.269992,-0.0013 -0.01268,1.09584 -0.422326,0.0063 z M -1.5768008,6.4961671 -20.916012,19.895538 -23.243395,16.379767 -12.527855,8.9908065 C -3.3514343,2.6631543 -1.7744577,1.6010068 -1.5487357,1.5959948 5.5107119,6.6909775 18.52391,16.987663 18.52391,16.987663 l -2.385899,3.096148 z"
     style="fill:url(#linearGradient4651-7);fill-opacity:1;stroke:none;stroke-width:0.07339411"
     sodipodi:nodetypes="ccscsccccccscccccccccccccscccsccccccccccsccccccscsccccccccccccccccccccccccccccccscccccccccccccccccccccscsccccccccccscccccccccccsscccsccscccccccccccccscccccccccccccccccccccccccccccccccscccccccccccccccccccccccccccccccccccccccccccccccscccccccccccccccccccccccccccccccccccccccccccccccccsccsscsscccccccccccccccccccccsscccccccccccccccsscscscccccccccccccccccccccccccsscscsccccccccccccccccccccccccccccccccccccccccccccccccccccccccccccccccccscscczscsscscccccccccccccccccccccccccccccccccccccccccccccccsccccc" />
</svg>
